<?xml version="1.0" encoding="UTF-8" standalone="no"?>
<!DOCTYPE svg PUBLIC "-//W3C//DTD SVG 1.1//EN" "http://www.w3.org/Graphics/SVG/1.1/DTD/svg11.dtd">
<svg width="100%" height="100%" viewBox="0 0 400 400" version="1.1" xmlns="http://www.w3.org/2000/svg" xmlns:xlink="http://www.w3.org/1999/xlink" xml:space="preserve" xmlns:serif="http://www.serif.com/" style="fill-rule:evenodd;clip-rule:evenodd;stroke-linejoin:round;stroke-miterlimit:2;">
    <g transform="matrix(1.49716,0,0,1.49716,-111.691,-149.981)">
        <g id="Typ2">
            <g>
                <g id="Logo">
                    <g transform="matrix(-1,0,0,1,413.734,0)">
                        <g transform="matrix(-0.667932,0,0,0.667932,339.132,100.177)">
                            <path d="M277.14,117.1L329.252,117.1C337.1,117.1 345.358,124.145 343.471,131.319L309.649,269.368C307.599,278.404 303.277,283.588 295.429,283.588L230.443,283.588L230.429,308.793L296.295,308.793C310.164,308.793 325.994,300.895 330.012,279.239L365.214,134.707C369.815,112.812 349.804,97.016 334.516,97.334L277.14,97.311L277.14,117.1ZM348.961,104.514C354.291,106.411 360.696,114.681 361.664,119.314C363.134,126.348 353.183,125.131 352.205,120.902C351.338,117.149 350.012,115.503 347.642,114.051C340.944,109.947 345.329,103.221 348.961,104.514Z"/>
                        </g>
                        <g transform="matrix(-0.667932,0,0,0.667932,350.89,100.177)">
                            <path d="M280.218,78.808C293.572,78.808 304.414,91.713 304.414,107.609C304.414,123.504 293.572,136.409 280.218,136.409L280.218,78.808Z"/>
                        </g>
                    </g>
                    <g transform="matrix(1,0,0,1,2.64279,0)">
                        <g transform="matrix(1,0,0,1,-47.3694,-61.5699)">
                            <path d="M201.391,239.962L166.584,239.962C161.342,239.962 155.826,244.668 157.086,249.459L179.677,341.667C181.046,347.702 183.933,351.165 189.175,351.165L282.123,351.165L282.133,368L188.596,368C179.333,368 168.76,362.725 166.076,348.26L142.563,251.722C139.49,237.098 152.856,226.548 163.067,226.76L201.391,226.744L201.391,239.962Z"/>
                        </g>
                        <g transform="matrix(-0.667932,0,0,0.667932,350.89,100.177)">
                            <path d="M280.218,78.808C293.572,78.808 304.414,91.713 304.414,107.609C304.414,123.504 293.572,136.409 280.218,136.409L280.218,78.808Z"/>
                        </g>
                    </g>
                    <g transform="matrix(1.89973,0,0,1.89973,-150.698,-317.97)">
                        <text x="172.092px" y="275.84px" style="font-family:'OpenSans-ExtraBold', 'Open Sans', sans-serif;font-weight:800;font-size:50px;fill:rgb(255,0,0);">#</text>
                    </g>
                    <g transform="matrix(0.667932,0,0,0.667932,74.602,100.177)">
                        <path d="M243.284,341.565C232.132,357.385 165.247,358.444 154.105,341.565C149.504,334.596 176.399,319.973 176.399,319.973C191.207,326.322 206.077,325.575 220.989,319.973C220.989,319.973 248.152,334.66 243.284,341.565ZM224.759,341.852L214.658,329.833L221.654,326.103L236.741,336.902C233.636,339.909 229.52,341.372 224.759,341.852Z"/>
                    </g>
                    <g transform="matrix(1,0,0,1,42.6842,-0.13639)">
                        <circle cx="206.996" cy="275.644" r="6.809"/>
                    </g>
                    <g transform="matrix(0.803658,0,0,0.803658,99.1619,55.3209)">
                        <circle cx="206.996" cy="275.644" r="6.809"/>
                    </g>
                </g>
            </g>
        </g>
    </g>
</svg>
