<?xml version="1.0" encoding="UTF-8" standalone="no"?>
<!DOCTYPE svg PUBLIC "-//W3C//DTD SVG 1.1//EN" "http://www.w3.org/Graphics/SVG/1.1/DTD/svg11.dtd">
<svg width="100%" height="100%" viewBox="0 0 400 400" version="1.1" xmlns="http://www.w3.org/2000/svg" xmlns:xlink="http://www.w3.org/1999/xlink" xml:space="preserve" style="fill-rule:evenodd;clip-rule:evenodd;stroke-linejoin:round;stroke-miterlimit:2;">
    <g id="Typ1" transform="matrix(1,0,0,1,-400,0)">
        <g transform="matrix(1.49716,0,0,1.49716,-111.691,-149.981)">
            <g id="Logo">
            </g>
        </g>
        <g transform="matrix(1.49716,0,0,1.49716,288.309,-149.981)">
            <g id="Logo1">
                <g transform="matrix(-1,0,0,1,413.734,0)">
                    <g transform="matrix(-0.667932,0,0,0.667932,606.304,100.177)">
                        <path d="M690.66,117.1L729.252,117.1C737.1,117.1 745.358,124.145 743.471,131.319L709.649,269.368C707.599,278.404 703.277,283.588 695.429,283.588L630.443,283.588L630.429,308.793L696.295,308.793C710.164,308.793 725.994,300.895 730.012,279.239L765.214,134.707C769.815,112.812 749.804,97.016 734.516,97.334L690.66,97.311L690.66,117.1ZM748.961,104.514C754.291,106.411 760.696,114.681 761.664,119.314C763.134,126.348 753.183,125.131 752.205,120.902C751.338,117.149 750.012,115.503 747.642,114.051C740.944,109.947 745.329,103.221 748.961,104.514Z"/>
                    </g>
                    <g>
                        <g transform="matrix(108.574,0,0,108.574,138.793,202.13)">
                            <path d="M0.028,-0.34C0.053,-0.341 0.073,-0.348 0.089,-0.361C0.105,-0.373 0.115,-0.391 0.121,-0.414C0.126,-0.436 0.129,-0.433 0.129,-0.487C0.129,-0.542 0.134,-0.571 0.142,-0.588C0.15,-0.604 0.16,-0.617 0.172,-0.627C0.183,-0.637 0.198,-0.645 0.216,-0.65C0.229,-0.653 0.249,-0.655 0.277,-0.655L0.304,-0.655L0.304,-0.578L0.289,-0.578C0.255,-0.578 0.233,-0.572 0.222,-0.56C0.211,-0.548 0.206,-0.521 0.205,-0.478C0.206,-0.449 0.204,-0.443 0.201,-0.421C0.192,-0.341 0.151,-0.304 0.121,-0.289C0.089,-0.271 0.053,-0.26 0.028,-0.261L0.028,-0.34Z"/>
                        </g>
                        <g transform="matrix(108.574,0,0,-108.574,138.793,141.402)">
                            <path d="M0.028,-0.34C0.053,-0.341 0.073,-0.348 0.089,-0.361C0.105,-0.373 0.115,-0.391 0.121,-0.414C0.126,-0.436 0.129,-0.433 0.129,-0.487C0.129,-0.542 0.134,-0.571 0.142,-0.588C0.15,-0.604 0.16,-0.617 0.172,-0.627C0.183,-0.637 0.198,-0.645 0.216,-0.65C0.229,-0.653 0.249,-0.655 0.277,-0.655L0.304,-0.655L0.304,-0.578L0.289,-0.578C0.255,-0.578 0.233,-0.572 0.222,-0.56C0.211,-0.548 0.206,-0.521 0.205,-0.478C0.206,-0.449 0.204,-0.443 0.201,-0.421C0.192,-0.341 0.151,-0.304 0.121,-0.289C0.089,-0.271 0.053,-0.26 0.028,-0.261L0.028,-0.34Z"/>
                        </g>
                    </g>
                </g>
                <g transform="matrix(1,0,0,1,2.64279,-2.22045e-16)">
                    <g transform="matrix(1,0,0,1,-47.3694,-61.5699)">
                        <path d="M193.484,239.962L166.584,239.962C161.342,239.962 155.826,244.668 157.086,249.459L179.677,341.667C181.046,347.702 183.933,351.165 189.175,351.165L294.727,351.165L294.736,368L188.596,368C179.333,368 168.76,362.725 166.076,348.26L142.563,251.722C139.49,237.098 152.856,226.548 163.067,226.76L193.484,226.744L193.484,239.962Z" style="fill:black;"/>
                    </g>
                    <g>
                        <g transform="matrix(108.574,0,0,108.574,138.793,202.13)">
                            <path d="M0.028,-0.34C0.053,-0.341 0.073,-0.348 0.089,-0.361C0.105,-0.373 0.115,-0.391 0.121,-0.414C0.126,-0.436 0.129,-0.433 0.129,-0.487C0.129,-0.542 0.134,-0.571 0.142,-0.588C0.15,-0.604 0.16,-0.617 0.172,-0.627C0.183,-0.637 0.198,-0.645 0.216,-0.65C0.229,-0.653 0.249,-0.655 0.277,-0.655L0.304,-0.655L0.304,-0.578L0.289,-0.578C0.255,-0.578 0.233,-0.572 0.222,-0.56C0.211,-0.548 0.206,-0.521 0.205,-0.478C0.206,-0.449 0.204,-0.443 0.201,-0.421C0.192,-0.341 0.151,-0.304 0.121,-0.289C0.089,-0.271 0.053,-0.26 0.028,-0.261L0.028,-0.34Z"/>
                        </g>
                        <g transform="matrix(108.574,0,0,-108.574,138.793,141.402)">
                            <path d="M0.028,-0.34C0.053,-0.341 0.073,-0.348 0.089,-0.361C0.105,-0.373 0.115,-0.391 0.121,-0.414C0.126,-0.436 0.129,-0.433 0.129,-0.487C0.129,-0.542 0.134,-0.571 0.142,-0.588C0.15,-0.604 0.16,-0.617 0.172,-0.627C0.183,-0.637 0.198,-0.645 0.216,-0.65C0.229,-0.653 0.249,-0.655 0.277,-0.655L0.304,-0.655L0.304,-0.578L0.289,-0.578C0.255,-0.578 0.233,-0.572 0.222,-0.56C0.211,-0.548 0.206,-0.521 0.205,-0.478C0.206,-0.449 0.204,-0.443 0.201,-0.421C0.192,-0.341 0.151,-0.304 0.121,-0.289C0.089,-0.271 0.053,-0.26 0.028,-0.261L0.028,-0.34Z"/>
                        </g>
                    </g>
                </g>
                <g transform="matrix(0.667932,0,0,0.667932,-192.571,100.177)">
                    <path d="M643.284,341.565C632.132,357.385 565.247,358.444 554.105,341.565C549.504,334.596 576.399,319.973 576.399,319.973C591.207,326.322 606.077,325.575 620.989,319.973C620.989,319.973 648.152,334.66 643.284,341.565ZM624.759,341.852L614.658,329.833L621.654,326.103L636.741,336.902C633.636,339.909 629.52,341.372 624.759,341.852Z" style="fill:black;"/>
                </g>
                <g transform="matrix(1,0,0,1,42.6842,-0.13639)">
                    <circle cx="206.996" cy="275.644" r="6.809"/>
                </g>
                <g transform="matrix(0.803658,0,0,0.803658,99.1619,55.3209)">
                    <circle cx="206.996" cy="275.644" r="6.809"/>
                </g>
                <g transform="matrix(1.49213,0,0,1.49213,-72.1048,-212.907)">
                    <text x="172.092px" y="275.84px" style="font-family:'OpenSans-ExtraBold', 'Open Sans', sans-serif;font-weight:800;font-size:50px;fill:rgb(255,0,0);">#</text>
                </g>
            </g>
        </g>
    </g>
</svg>
