<svg width="970" height="250" viewBox="0 0 970 250" fill="none" xmlns="http://www.w3.org/2000/svg">
<g clip-path="url(#clip0)">
<rect width="970" height="250" fill="#2F2F2F"/>
<g clip-path="url(#clip1)" filter="url(#filter0_d)">
<rect x="445" y="57" width="80" height="60" rx="11" fill="#330044"/>
<g filter="url(#filter1_d)">
<rect x="445" y="51" width="80" height="60" rx="11" fill="#5C3070"/>
</g>
<g filter="url(#filter2_d)">
<circle cx="451" cy="65" r="14" fill="#5C3070"/>
</g>
<g filter="url(#filter3_d)">
<circle cx="519" cy="65" r="14" fill="#5C3070"/>
</g>
<g filter="url(#filter4_d)">
<circle cx="450" cy="64" r="9" fill="white"/>
</g>
<g filter="url(#filter5_d)">
<circle cx="450" cy="64" r="5" fill="black"/>
</g>
<g filter="url(#filter6_d)">
<circle cx="520" cy="64" r="9" fill="white"/>
</g>
<g filter="url(#filter7_d)">
<circle cx="520" cy="64" r="5" fill="black"/>
</g>
<circle cx="460" cy="92" r="5" fill="#330044"/>
<path d="M515 92C515 94.7614 512.761 97 510 97C507.239 97 505 94.7614 505 92C505 89.2386 507.239 87 510 87C512.761 87 515 89.2386 515 92Z" fill="#330044"/>
<g filter="url(#filter8_d)">
<path d="M435 84.1699C435 84.1699 427.38 90.0933 430 93.273C432.343 96.1169 437.657 96.1169 440 93.273C442.62 90.0933 435 84.1699 435 84.1699Z" fill="#5C3070"/>
<path d="M435 47.7577V84.1699M435 84.1699C435 84.1699 427.38 90.0933 430 93.273C432.343 96.1169 437.657 96.1169 440 93.273C442.62 90.0933 435 84.1699 435 84.1699Z" stroke="#330044" stroke-width="0.5"/>
<path d="M485 25L425 45.229L485 61.4122L545 45.229L485 25Z" fill="#5C3070" stroke="#330044" stroke-width="0.5"/>
</g>
</g>
<path d="M399.465 172V146.406H406.689C408.916 146.406 410.885 146.898 412.596 147.883C414.307 148.867 415.625 150.268 416.551 152.084C417.488 153.9 417.963 155.986 417.975 158.342V159.977C417.975 162.391 417.506 164.506 416.568 166.322C415.643 168.139 414.312 169.533 412.578 170.506C410.855 171.479 408.846 171.977 406.549 172H399.465ZM402.84 149.184V169.24H406.391C408.992 169.24 411.014 168.432 412.455 166.814C413.908 165.197 414.635 162.895 414.635 159.906V158.412C414.635 155.506 413.949 153.25 412.578 151.645C411.219 150.027 409.285 149.207 406.777 149.184H402.84ZM430.473 172.352C427.895 172.352 425.797 171.508 424.18 169.82C422.562 168.121 421.754 165.854 421.754 163.018V162.42C421.754 160.533 422.111 158.852 422.826 157.375C423.553 155.887 424.561 154.727 425.85 153.895C427.15 153.051 428.557 152.629 430.068 152.629C432.541 152.629 434.463 153.443 435.834 155.072C437.205 156.701 437.891 159.033 437.891 162.068V163.422H425.006C425.053 165.297 425.598 166.814 426.641 167.975C427.695 169.123 429.031 169.697 430.648 169.697C431.797 169.697 432.77 169.463 433.566 168.994C434.363 168.525 435.061 167.904 435.658 167.131L437.645 168.678C436.051 171.127 433.66 172.352 430.473 172.352ZM430.068 155.301C428.756 155.301 427.654 155.781 426.764 156.742C425.873 157.691 425.322 159.027 425.111 160.75H434.639V160.504C434.545 158.852 434.1 157.574 433.303 156.672C432.506 155.758 431.428 155.301 430.068 155.301ZM447.699 167.588L452.41 152.98H455.732L448.912 172H446.434L439.543 152.98H442.865L447.699 167.588ZM465.629 162.455H457.051V159.801H465.629V162.455ZM469.32 172V146.406H476.545C478.771 146.406 480.74 146.898 482.451 147.883C484.162 148.867 485.48 150.268 486.406 152.084C487.344 153.9 487.818 155.986 487.83 158.342V159.977C487.83 162.391 487.361 164.506 486.424 166.322C485.498 168.139 484.168 169.533 482.434 170.506C480.711 171.479 478.701 171.977 476.404 172H469.32ZM472.695 149.184V169.24H476.246C478.848 169.24 480.869 168.432 482.311 166.814C483.764 165.197 484.49 162.895 484.49 159.906V158.412C484.49 155.506 483.805 153.25 482.434 151.645C481.074 150.027 479.141 149.207 476.633 149.184H472.695ZM491.574 162.314C491.574 160.451 491.938 158.775 492.664 157.287C493.402 155.799 494.422 154.65 495.723 153.842C497.035 153.033 498.529 152.629 500.205 152.629C502.795 152.629 504.887 153.525 506.48 155.318C508.086 157.111 508.889 159.496 508.889 162.473V162.701C508.889 164.553 508.531 166.217 507.816 167.693C507.113 169.158 506.1 170.301 504.775 171.121C503.463 171.941 501.951 172.352 500.24 172.352C497.662 172.352 495.57 171.455 493.965 169.662C492.371 167.869 491.574 165.496 491.574 162.543V162.314ZM494.844 162.701C494.844 164.811 495.33 166.504 496.303 167.781C497.287 169.059 498.6 169.697 500.24 169.697C501.893 169.697 503.205 169.053 504.178 167.764C505.15 166.463 505.637 164.646 505.637 162.314C505.637 160.229 505.139 158.541 504.143 157.252C503.158 155.951 501.846 155.301 500.205 155.301C498.6 155.301 497.305 155.939 496.32 157.217C495.336 158.494 494.844 160.322 494.844 162.701ZM520.596 169.697C521.756 169.697 522.77 169.346 523.637 168.643C524.504 167.939 524.984 167.061 525.078 166.006H528.154C528.096 167.096 527.721 168.133 527.029 169.117C526.338 170.102 525.412 170.887 524.252 171.473C523.104 172.059 521.885 172.352 520.596 172.352C518.006 172.352 515.943 171.49 514.408 169.768C512.885 168.033 512.123 165.666 512.123 162.666V162.121C512.123 160.27 512.463 158.623 513.143 157.182C513.822 155.74 514.795 154.621 516.061 153.824C517.338 153.027 518.844 152.629 520.578 152.629C522.711 152.629 524.48 153.268 525.887 154.545C527.305 155.822 528.061 157.48 528.154 159.52H525.078C524.984 158.289 524.516 157.281 523.672 156.496C522.84 155.699 521.809 155.301 520.578 155.301C518.926 155.301 517.643 155.898 516.729 157.094C515.826 158.277 515.375 159.994 515.375 162.244V162.859C515.375 165.051 515.826 166.738 516.729 167.922C517.631 169.105 518.92 169.697 520.596 169.697ZM536.223 148.375V152.98H539.773V155.494H536.223V167.289C536.223 168.051 536.381 168.625 536.697 169.012C537.014 169.387 537.553 169.574 538.314 169.574C538.689 169.574 539.205 169.504 539.861 169.363V172C539.006 172.234 538.174 172.352 537.365 172.352C535.912 172.352 534.816 171.912 534.078 171.033C533.34 170.154 532.971 168.906 532.971 167.289V155.494H529.508V152.98H532.971V148.375H536.223ZM542.375 162.314C542.375 160.451 542.738 158.775 543.465 157.287C544.203 155.799 545.223 154.65 546.523 153.842C547.836 153.033 549.33 152.629 551.006 152.629C553.596 152.629 555.688 153.525 557.281 155.318C558.887 157.111 559.689 159.496 559.689 162.473V162.701C559.689 164.553 559.332 166.217 558.617 167.693C557.914 169.158 556.9 170.301 555.576 171.121C554.264 171.941 552.752 172.352 551.041 172.352C548.463 172.352 546.371 171.455 544.766 169.662C543.172 167.869 542.375 165.496 542.375 162.543V162.314ZM545.645 162.701C545.645 164.811 546.131 166.504 547.104 167.781C548.088 169.059 549.4 169.697 551.041 169.697C552.693 169.697 554.006 169.053 554.979 167.764C555.951 166.463 556.438 164.646 556.438 162.314C556.438 160.229 555.939 158.541 554.943 157.252C553.959 155.951 552.646 155.301 551.006 155.301C549.4 155.301 548.105 155.939 547.121 157.217C546.137 158.494 545.645 160.322 545.645 162.701ZM572.961 155.898C572.469 155.816 571.936 155.775 571.361 155.775C569.229 155.775 567.781 156.684 567.02 158.5V172H563.768V152.98H566.932L566.984 155.178C568.051 153.479 569.562 152.629 571.52 152.629C572.152 152.629 572.633 152.711 572.961 152.875V155.898Z" fill="white"/>
<path d="M309.333 196.349H303.963V202H302.275V189.203H310.203V190.592H303.963V194.969H309.333V196.349ZM316.338 193.949C316.092 193.908 315.825 193.888 315.538 193.888C314.472 193.888 313.748 194.342 313.367 195.25V202H311.741V192.49H313.323L313.35 193.589C313.883 192.739 314.639 192.314 315.617 192.314C315.934 192.314 316.174 192.355 316.338 192.438V193.949ZM321.611 202.176C320.322 202.176 319.273 201.754 318.465 200.91C317.656 200.061 317.252 198.927 317.252 197.509V197.21C317.252 196.267 317.431 195.426 317.788 194.688C318.151 193.943 318.655 193.363 319.3 192.947C319.95 192.525 320.653 192.314 321.409 192.314C322.646 192.314 323.606 192.722 324.292 193.536C324.978 194.351 325.32 195.517 325.32 197.034V197.711H318.878C318.901 198.648 319.174 199.407 319.695 199.987C320.223 200.562 320.891 200.849 321.699 200.849C322.273 200.849 322.76 200.731 323.158 200.497C323.557 200.263 323.905 199.952 324.204 199.565L325.197 200.339C324.4 201.563 323.205 202.176 321.611 202.176ZM321.409 193.65C320.753 193.65 320.202 193.891 319.757 194.371C319.312 194.846 319.036 195.514 318.931 196.375H323.694V196.252C323.647 195.426 323.425 194.787 323.026 194.336C322.628 193.879 322.089 193.65 321.409 193.65ZM331.156 202.176C329.867 202.176 328.818 201.754 328.01 200.91C327.201 200.061 326.797 198.927 326.797 197.509V197.21C326.797 196.267 326.976 195.426 327.333 194.688C327.696 193.943 328.2 193.363 328.845 192.947C329.495 192.525 330.198 192.314 330.954 192.314C332.19 192.314 333.151 192.722 333.837 193.536C334.522 194.351 334.865 195.517 334.865 197.034V197.711H328.423C328.446 198.648 328.719 199.407 329.24 199.987C329.768 200.562 330.436 200.849 331.244 200.849C331.818 200.849 332.305 200.731 332.703 200.497C333.102 200.263 333.45 199.952 333.749 199.565L334.742 200.339C333.945 201.563 332.75 202.176 331.156 202.176ZM330.954 193.65C330.298 193.65 329.747 193.891 329.302 194.371C328.856 194.846 328.581 195.514 328.476 196.375H333.239V196.252C333.192 195.426 332.97 194.787 332.571 194.336C332.173 193.879 331.634 193.65 330.954 193.65ZM336.702 204.549L335.779 203.916C336.33 203.148 336.617 202.357 336.641 201.543V200.075H338.231V201.35C338.231 201.941 338.085 202.533 337.792 203.125C337.505 203.717 337.142 204.191 336.702 204.549ZM344.322 197.157C344.322 196.226 344.504 195.388 344.867 194.644C345.236 193.899 345.746 193.325 346.396 192.921C347.053 192.517 347.8 192.314 348.638 192.314C349.933 192.314 350.979 192.763 351.775 193.659C352.578 194.556 352.979 195.748 352.979 197.236V197.351C352.979 198.276 352.801 199.108 352.443 199.847C352.092 200.579 351.585 201.15 350.923 201.561C350.267 201.971 349.511 202.176 348.655 202.176C347.366 202.176 346.32 201.728 345.518 200.831C344.721 199.935 344.322 198.748 344.322 197.271V197.157ZM345.957 197.351C345.957 198.405 346.2 199.252 346.687 199.891C347.179 200.529 347.835 200.849 348.655 200.849C349.481 200.849 350.138 200.526 350.624 199.882C351.11 199.231 351.354 198.323 351.354 197.157C351.354 196.114 351.104 195.271 350.606 194.626C350.114 193.976 349.458 193.65 348.638 193.65C347.835 193.65 347.188 193.97 346.695 194.608C346.203 195.247 345.957 196.161 345.957 197.351ZM363.052 197.351C363.052 198.798 362.721 199.964 362.059 200.849C361.396 201.733 360.5 202.176 359.369 202.176C358.215 202.176 357.307 201.81 356.645 201.077V205.656H355.019V192.49H356.504L356.583 193.545C357.245 192.725 358.165 192.314 359.343 192.314C360.485 192.314 361.388 192.745 362.05 193.606C362.718 194.468 363.052 195.666 363.052 197.201V197.351ZM361.426 197.166C361.426 196.094 361.197 195.247 360.74 194.626C360.283 194.005 359.656 193.694 358.859 193.694C357.875 193.694 357.137 194.131 356.645 195.004V199.548C357.131 200.415 357.875 200.849 358.877 200.849C359.656 200.849 360.274 200.541 360.731 199.926C361.194 199.305 361.426 198.385 361.426 197.166ZM369.072 202.176C367.783 202.176 366.734 201.754 365.926 200.91C365.117 200.061 364.713 198.927 364.713 197.509V197.21C364.713 196.267 364.892 195.426 365.249 194.688C365.612 193.943 366.116 193.363 366.761 192.947C367.411 192.525 368.114 192.314 368.87 192.314C370.106 192.314 371.067 192.722 371.753 193.536C372.438 194.351 372.781 195.517 372.781 197.034V197.711H366.339C366.362 198.648 366.635 199.407 367.156 199.987C367.684 200.562 368.352 200.849 369.16 200.849C369.734 200.849 370.221 200.731 370.619 200.497C371.018 200.263 371.366 199.952 371.665 199.565L372.658 200.339C371.861 201.563 370.666 202.176 369.072 202.176ZM368.87 193.65C368.214 193.65 367.663 193.891 367.218 194.371C366.772 194.846 366.497 195.514 366.392 196.375H371.155V196.252C371.108 195.426 370.886 194.787 370.487 194.336C370.089 193.879 369.55 193.65 368.87 193.65ZM376.209 192.49L376.262 193.686C376.988 192.771 377.938 192.314 379.109 192.314C381.119 192.314 382.133 193.448 382.15 195.716V202H380.524V195.707C380.519 195.021 380.36 194.515 380.05 194.187C379.745 193.858 379.268 193.694 378.617 193.694C378.09 193.694 377.627 193.835 377.229 194.116C376.83 194.397 376.52 194.767 376.297 195.224V202H374.671V192.49H376.209ZM390.14 199.478C390.14 199.038 389.973 198.698 389.639 198.458C389.311 198.212 388.733 198.001 387.907 197.825C387.087 197.649 386.434 197.438 385.947 197.192C385.467 196.946 385.109 196.653 384.875 196.313C384.646 195.974 384.532 195.569 384.532 195.101C384.532 194.321 384.86 193.662 385.517 193.123C386.179 192.584 387.022 192.314 388.048 192.314C389.126 192.314 389.999 192.593 390.667 193.149C391.341 193.706 391.678 194.418 391.678 195.285H390.043C390.043 194.84 389.853 194.456 389.472 194.134C389.097 193.812 388.622 193.65 388.048 193.65C387.456 193.65 386.993 193.779 386.659 194.037C386.325 194.295 386.158 194.632 386.158 195.048C386.158 195.44 386.313 195.736 386.624 195.936C386.935 196.135 387.494 196.325 388.303 196.507C389.117 196.688 389.776 196.905 390.28 197.157C390.784 197.409 391.156 197.714 391.396 198.071C391.643 198.423 391.766 198.854 391.766 199.363C391.766 200.213 391.426 200.896 390.746 201.411C390.066 201.921 389.185 202.176 388.101 202.176C387.339 202.176 386.665 202.041 386.079 201.771C385.493 201.502 385.033 201.127 384.699 200.646C384.371 200.16 384.207 199.636 384.207 199.073H385.833C385.862 199.618 386.079 200.052 386.483 200.374C386.894 200.69 387.433 200.849 388.101 200.849C388.716 200.849 389.208 200.726 389.577 200.479C389.952 200.228 390.14 199.894 390.14 199.478ZM393.453 197.157C393.453 196.226 393.635 195.388 393.998 194.644C394.367 193.899 394.877 193.325 395.527 192.921C396.184 192.517 396.931 192.314 397.769 192.314C399.063 192.314 400.109 192.763 400.906 193.659C401.709 194.556 402.11 195.748 402.11 197.236V197.351C402.11 198.276 401.932 199.108 401.574 199.847C401.223 200.579 400.716 201.15 400.054 201.561C399.397 201.971 398.642 202.176 397.786 202.176C396.497 202.176 395.451 201.728 394.648 200.831C393.852 199.935 393.453 198.748 393.453 197.271V197.157ZM395.088 197.351C395.088 198.405 395.331 199.252 395.817 199.891C396.31 200.529 396.966 200.849 397.786 200.849C398.612 200.849 399.269 200.526 399.755 199.882C400.241 199.231 400.484 198.323 400.484 197.157C400.484 196.114 400.235 195.271 399.737 194.626C399.245 193.976 398.589 193.65 397.769 193.65C396.966 193.65 396.318 193.97 395.826 194.608C395.334 195.247 395.088 196.161 395.088 197.351ZM410.021 201.06C409.388 201.804 408.459 202.176 407.234 202.176C406.221 202.176 405.447 201.883 404.914 201.297C404.387 200.705 404.12 199.832 404.114 198.678V192.49H405.74V198.634C405.74 200.075 406.326 200.796 407.498 200.796C408.74 200.796 409.566 200.333 409.977 199.407V192.49H411.603V202H410.056L410.021 201.06ZM418.678 193.949C418.432 193.908 418.165 193.888 417.878 193.888C416.812 193.888 416.088 194.342 415.707 195.25V202H414.081V192.49H415.663L415.689 193.589C416.223 192.739 416.979 192.314 417.957 192.314C418.273 192.314 418.514 192.355 418.678 192.438V193.949ZM423.819 200.849C424.399 200.849 424.906 200.673 425.34 200.321C425.773 199.97 426.014 199.53 426.061 199.003H427.599C427.569 199.548 427.382 200.066 427.036 200.559C426.69 201.051 426.228 201.443 425.647 201.736C425.073 202.029 424.464 202.176 423.819 202.176C422.524 202.176 421.493 201.745 420.726 200.884C419.964 200.017 419.583 198.833 419.583 197.333V197.061C419.583 196.135 419.753 195.312 420.093 194.591C420.433 193.87 420.919 193.311 421.552 192.912C422.19 192.514 422.943 192.314 423.811 192.314C424.877 192.314 425.762 192.634 426.465 193.272C427.174 193.911 427.552 194.74 427.599 195.76H426.061C426.014 195.145 425.779 194.641 425.357 194.248C424.941 193.85 424.426 193.65 423.811 193.65C422.984 193.65 422.343 193.949 421.886 194.547C421.435 195.139 421.209 195.997 421.209 197.122V197.43C421.209 198.525 421.435 199.369 421.886 199.961C422.337 200.553 422.981 200.849 423.819 200.849ZM433.373 202.176C432.084 202.176 431.035 201.754 430.227 200.91C429.418 200.061 429.014 198.927 429.014 197.509V197.21C429.014 196.267 429.192 195.426 429.55 194.688C429.913 193.943 430.417 193.363 431.062 192.947C431.712 192.525 432.415 192.314 433.171 192.314C434.407 192.314 435.368 192.722 436.054 193.536C436.739 194.351 437.082 195.517 437.082 197.034V197.711H430.64C430.663 198.648 430.936 199.407 431.457 199.987C431.984 200.562 432.652 200.849 433.461 200.849C434.035 200.849 434.521 200.731 434.92 200.497C435.318 200.263 435.667 199.952 435.966 199.565L436.959 200.339C436.162 201.563 434.967 202.176 433.373 202.176ZM433.171 193.65C432.515 193.65 431.964 193.891 431.519 194.371C431.073 194.846 430.798 195.514 430.692 196.375H435.456V196.252C435.409 195.426 435.187 194.787 434.788 194.336C434.39 193.879 433.851 193.65 433.171 193.65ZM438.919 204.549L437.996 203.916C438.547 203.148 438.834 202.357 438.857 201.543V200.075H440.448V201.35C440.448 201.941 440.302 202.533 440.009 203.125C439.722 203.717 439.358 204.191 438.919 204.549ZM452.507 199.478C452.507 199.038 452.34 198.698 452.006 198.458C451.678 198.212 451.101 198.001 450.274 197.825C449.454 197.649 448.801 197.438 448.314 197.192C447.834 196.946 447.477 196.653 447.242 196.313C447.014 195.974 446.899 195.569 446.899 195.101C446.899 194.321 447.228 193.662 447.884 193.123C448.546 192.584 449.39 192.314 450.415 192.314C451.493 192.314 452.366 192.593 453.034 193.149C453.708 193.706 454.045 194.418 454.045 195.285H452.41C452.41 194.84 452.22 194.456 451.839 194.134C451.464 193.812 450.989 193.65 450.415 193.65C449.823 193.65 449.36 193.779 449.026 194.037C448.692 194.295 448.525 194.632 448.525 195.048C448.525 195.44 448.681 195.736 448.991 195.936C449.302 196.135 449.861 196.325 450.67 196.507C451.484 196.688 452.144 196.905 452.647 197.157C453.151 197.409 453.523 197.714 453.764 198.071C454.01 198.423 454.133 198.854 454.133 199.363C454.133 200.213 453.793 200.896 453.113 201.411C452.434 201.921 451.552 202.176 450.468 202.176C449.706 202.176 449.032 202.041 448.446 201.771C447.86 201.502 447.4 201.127 447.066 200.646C446.738 200.16 446.574 199.636 446.574 199.073H448.2C448.229 199.618 448.446 200.052 448.851 200.374C449.261 200.69 449.8 200.849 450.468 200.849C451.083 200.849 451.575 200.726 451.944 200.479C452.319 200.228 452.507 199.894 452.507 199.478ZM460.197 202.176C458.908 202.176 457.859 201.754 457.051 200.91C456.242 200.061 455.838 198.927 455.838 197.509V197.21C455.838 196.267 456.017 195.426 456.374 194.688C456.737 193.943 457.241 193.363 457.886 192.947C458.536 192.525 459.239 192.314 459.995 192.314C461.231 192.314 462.192 192.722 462.878 193.536C463.563 194.351 463.906 195.517 463.906 197.034V197.711H457.464C457.487 198.648 457.76 199.407 458.281 199.987C458.809 200.562 459.477 200.849 460.285 200.849C460.859 200.849 461.346 200.731 461.744 200.497C462.143 200.263 462.491 199.952 462.79 199.565L463.783 200.339C462.986 201.563 461.791 202.176 460.197 202.176ZM459.995 193.65C459.339 193.65 458.788 193.891 458.343 194.371C457.897 194.846 457.622 195.514 457.517 196.375H462.28V196.252C462.233 195.426 462.011 194.787 461.612 194.336C461.214 193.879 460.675 193.65 459.995 193.65ZM470.393 193.949C470.146 193.908 469.88 193.888 469.593 193.888C468.526 193.888 467.803 194.342 467.422 195.25V202H465.796V192.49H467.378L467.404 193.589C467.938 192.739 468.693 192.314 469.672 192.314C469.988 192.314 470.229 192.355 470.393 192.438V193.949ZM475.191 199.794L477.547 192.49H479.208L475.798 202H474.559L471.113 192.49H472.774L475.191 199.794ZM484.596 202.176C483.307 202.176 482.258 201.754 481.449 200.91C480.641 200.061 480.236 198.927 480.236 197.509V197.21C480.236 196.267 480.415 195.426 480.772 194.688C481.136 193.943 481.64 193.363 482.284 192.947C482.935 192.525 483.638 192.314 484.394 192.314C485.63 192.314 486.591 192.722 487.276 193.536C487.962 194.351 488.305 195.517 488.305 197.034V197.711H481.862C481.886 198.648 482.158 199.407 482.68 199.987C483.207 200.562 483.875 200.849 484.684 200.849C485.258 200.849 485.744 200.731 486.143 200.497C486.541 200.263 486.89 199.952 487.188 199.565L488.182 200.339C487.385 201.563 486.189 202.176 484.596 202.176ZM484.394 193.65C483.737 193.65 483.187 193.891 482.741 194.371C482.296 194.846 482.021 195.514 481.915 196.375H486.679V196.252C486.632 195.426 486.409 194.787 486.011 194.336C485.612 193.879 485.073 193.65 484.394 193.65ZM494.791 193.949C494.545 193.908 494.278 193.888 493.991 193.888C492.925 193.888 492.201 194.342 491.82 195.25V202H490.194V192.49H491.776L491.803 193.589C492.336 192.739 493.092 192.314 494.07 192.314C494.387 192.314 494.627 192.355 494.791 192.438V193.949ZM498.061 202H496.435V188.5H498.061V202ZM504.617 202.176C503.328 202.176 502.279 201.754 501.471 200.91C500.662 200.061 500.258 198.927 500.258 197.509V197.21C500.258 196.267 500.437 195.426 500.794 194.688C501.157 193.943 501.661 193.363 502.306 192.947C502.956 192.525 503.659 192.314 504.415 192.314C505.651 192.314 506.612 192.722 507.298 193.536C507.983 194.351 508.326 195.517 508.326 197.034V197.711H501.884C501.907 198.648 502.18 199.407 502.701 199.987C503.229 200.562 503.896 200.849 504.705 200.849C505.279 200.849 505.766 200.731 506.164 200.497C506.562 200.263 506.911 199.952 507.21 199.565L508.203 200.339C507.406 201.563 506.211 202.176 504.617 202.176ZM504.415 193.65C503.759 193.65 503.208 193.891 502.763 194.371C502.317 194.846 502.042 195.514 501.937 196.375H506.7V196.252C506.653 195.426 506.431 194.787 506.032 194.336C505.634 193.879 505.095 193.65 504.415 193.65ZM515.753 199.478C515.753 199.038 515.586 198.698 515.252 198.458C514.924 198.212 514.347 198.001 513.521 197.825C512.7 197.649 512.047 197.438 511.561 197.192C511.08 196.946 510.723 196.653 510.488 196.313C510.26 195.974 510.146 195.569 510.146 195.101C510.146 194.321 510.474 193.662 511.13 193.123C511.792 192.584 512.636 192.314 513.661 192.314C514.739 192.314 515.612 192.593 516.28 193.149C516.954 193.706 517.291 194.418 517.291 195.285H515.656C515.656 194.84 515.466 194.456 515.085 194.134C514.71 193.812 514.235 193.65 513.661 193.65C513.069 193.65 512.606 193.779 512.272 194.037C511.938 194.295 511.771 194.632 511.771 195.048C511.771 195.44 511.927 195.736 512.237 195.936C512.548 196.135 513.107 196.325 513.916 196.507C514.73 196.688 515.39 196.905 515.894 197.157C516.397 197.409 516.77 197.714 517.01 198.071C517.256 198.423 517.379 198.854 517.379 199.363C517.379 200.213 517.039 200.896 516.359 201.411C515.68 201.921 514.798 202.176 513.714 202.176C512.952 202.176 512.278 202.041 511.692 201.771C511.106 201.502 510.646 201.127 510.312 200.646C509.984 200.16 509.82 199.636 509.82 199.073H511.446C511.476 199.618 511.692 200.052 512.097 200.374C512.507 200.69 513.046 200.849 513.714 200.849C514.329 200.849 514.821 200.726 515.19 200.479C515.565 200.228 515.753 199.894 515.753 199.478ZM525.034 199.478C525.034 199.038 524.867 198.698 524.533 198.458C524.205 198.212 523.628 198.001 522.802 197.825C521.981 197.649 521.328 197.438 520.842 197.192C520.361 196.946 520.004 196.653 519.77 196.313C519.541 195.974 519.427 195.569 519.427 195.101C519.427 194.321 519.755 193.662 520.411 193.123C521.073 192.584 521.917 192.314 522.942 192.314C524.021 192.314 524.894 192.593 525.562 193.149C526.235 193.706 526.572 194.418 526.572 195.285H524.938C524.938 194.84 524.747 194.456 524.366 194.134C523.991 193.812 523.517 193.65 522.942 193.65C522.351 193.65 521.888 193.779 521.554 194.037C521.22 194.295 521.053 194.632 521.053 195.048C521.053 195.44 521.208 195.736 521.519 195.936C521.829 196.135 522.389 196.325 523.197 196.507C524.012 196.688 524.671 196.905 525.175 197.157C525.679 197.409 526.051 197.714 526.291 198.071C526.537 198.423 526.66 198.854 526.66 199.363C526.66 200.213 526.32 200.896 525.641 201.411C524.961 201.921 524.079 202.176 522.995 202.176C522.233 202.176 521.56 202.041 520.974 201.771C520.388 201.502 519.928 201.127 519.594 200.646C519.266 200.16 519.102 199.636 519.102 199.073H520.728C520.757 199.618 520.974 200.052 521.378 200.374C521.788 200.69 522.327 200.849 522.995 200.849C523.61 200.849 524.103 200.726 524.472 200.479C524.847 200.228 525.034 199.894 525.034 199.478ZM535.01 202H533.384V188.5H535.01V202ZM541.566 202.176C540.277 202.176 539.229 201.754 538.42 200.91C537.611 200.061 537.207 198.927 537.207 197.509V197.21C537.207 196.267 537.386 195.426 537.743 194.688C538.106 193.943 538.61 193.363 539.255 192.947C539.905 192.525 540.608 192.314 541.364 192.314C542.601 192.314 543.562 192.722 544.247 193.536C544.933 194.351 545.275 195.517 545.275 197.034V197.711H538.833C538.856 198.648 539.129 199.407 539.65 199.987C540.178 200.562 540.846 200.849 541.654 200.849C542.229 200.849 542.715 200.731 543.113 200.497C543.512 200.263 543.86 199.952 544.159 199.565L545.152 200.339C544.355 201.563 543.16 202.176 541.566 202.176ZM541.364 193.65C540.708 193.65 540.157 193.891 539.712 194.371C539.267 194.846 538.991 195.514 538.886 196.375H543.649V196.252C543.603 195.426 543.38 194.787 542.981 194.336C542.583 193.879 542.044 193.65 541.364 193.65ZM553.036 202C552.942 201.812 552.866 201.479 552.808 200.998C552.052 201.783 551.149 202.176 550.101 202.176C549.163 202.176 548.393 201.912 547.789 201.385C547.191 200.852 546.893 200.178 546.893 199.363C546.893 198.373 547.268 197.605 548.018 197.061C548.773 196.51 549.834 196.234 551.199 196.234H552.781V195.487C552.781 194.919 552.611 194.468 552.271 194.134C551.932 193.794 551.431 193.624 550.769 193.624C550.188 193.624 549.702 193.771 549.31 194.063C548.917 194.356 548.721 194.711 548.721 195.127H547.086C547.086 194.652 547.253 194.195 547.587 193.756C547.927 193.311 548.384 192.959 548.958 192.701C549.538 192.443 550.174 192.314 550.865 192.314C551.961 192.314 552.819 192.59 553.44 193.141C554.062 193.686 554.384 194.438 554.407 195.399V199.776C554.407 200.649 554.519 201.344 554.741 201.859V202H553.036ZM550.338 200.761C550.848 200.761 551.331 200.629 551.788 200.365C552.245 200.102 552.576 199.759 552.781 199.337V197.386H551.507C549.515 197.386 548.519 197.969 548.519 199.135C548.519 199.645 548.688 200.043 549.028 200.33C549.368 200.617 549.805 200.761 550.338 200.761ZM561.553 193.949C561.307 193.908 561.04 193.888 560.753 193.888C559.687 193.888 558.963 194.342 558.582 195.25V202H556.956V192.49H558.538L558.564 193.589C559.098 192.739 559.854 192.314 560.832 192.314C561.148 192.314 561.389 192.355 561.553 192.438V193.949ZM564.594 192.49L564.646 193.686C565.373 192.771 566.322 192.314 567.494 192.314C569.504 192.314 570.518 193.448 570.535 195.716V202H568.909V195.707C568.903 195.021 568.745 194.515 568.435 194.187C568.13 193.858 567.652 193.694 567.002 193.694C566.475 193.694 566.012 193.835 565.613 194.116C565.215 194.397 564.904 194.767 564.682 195.224V202H563.056V192.49H564.594ZM574.754 202H573.128V192.49H574.754V202ZM572.996 189.968C572.996 189.704 573.075 189.481 573.233 189.3C573.397 189.118 573.638 189.027 573.954 189.027C574.271 189.027 574.511 189.118 574.675 189.3C574.839 189.481 574.921 189.704 574.921 189.968C574.921 190.231 574.839 190.451 574.675 190.627C574.511 190.803 574.271 190.891 573.954 190.891C573.638 190.891 573.397 190.803 573.233 190.627C573.075 190.451 572.996 190.231 572.996 189.968ZM578.902 192.49L578.955 193.686C579.682 192.771 580.631 192.314 581.803 192.314C583.812 192.314 584.826 193.448 584.844 195.716V202H583.218V195.707C583.212 195.021 583.054 194.515 582.743 194.187C582.438 193.858 581.961 193.694 581.311 193.694C580.783 193.694 580.32 193.835 579.922 194.116C579.523 194.397 579.213 194.767 578.99 195.224V202H577.364V192.49H578.902ZM586.909 197.166C586.909 195.684 587.252 194.506 587.938 193.633C588.623 192.754 589.531 192.314 590.662 192.314C591.822 192.314 592.728 192.725 593.378 193.545L593.457 192.49H594.942V201.771C594.942 203.002 594.576 203.972 593.844 204.681C593.117 205.39 592.139 205.744 590.908 205.744C590.223 205.744 589.552 205.598 588.896 205.305C588.239 205.012 587.738 204.61 587.393 204.101L588.236 203.125C588.934 203.986 589.786 204.417 590.794 204.417C591.585 204.417 592.2 204.194 592.64 203.749C593.085 203.304 593.308 202.677 593.308 201.868V201.051C592.657 201.801 591.77 202.176 590.645 202.176C589.531 202.176 588.629 201.728 587.938 200.831C587.252 199.935 586.909 198.713 586.909 197.166ZM588.544 197.351C588.544 198.423 588.764 199.267 589.203 199.882C589.643 200.491 590.258 200.796 591.049 200.796C592.074 200.796 592.827 200.33 593.308 199.398V195.057C592.81 194.148 592.062 193.694 591.066 193.694C590.275 193.694 589.657 194.002 589.212 194.617C588.767 195.232 588.544 196.144 588.544 197.351ZM609.901 197.351C609.901 198.798 609.57 199.964 608.908 200.849C608.246 201.733 607.35 202.176 606.219 202.176C605.064 202.176 604.156 201.81 603.494 201.077V205.656H601.868V192.49H603.354L603.433 193.545C604.095 192.725 605.015 192.314 606.192 192.314C607.335 192.314 608.237 192.745 608.899 193.606C609.567 194.468 609.901 195.666 609.901 197.201V197.351ZM608.275 197.166C608.275 196.094 608.047 195.247 607.59 194.626C607.133 194.005 606.506 193.694 605.709 193.694C604.725 193.694 603.986 194.131 603.494 195.004V199.548C603.98 200.415 604.725 200.849 605.727 200.849C606.506 200.849 607.124 200.541 607.581 199.926C608.044 199.305 608.275 198.385 608.275 197.166ZM613.742 202H612.116V188.5H613.742V202ZM622.224 202C622.13 201.812 622.054 201.479 621.995 200.998C621.239 201.783 620.337 202.176 619.288 202.176C618.351 202.176 617.58 201.912 616.977 201.385C616.379 200.852 616.08 200.178 616.08 199.363C616.08 198.373 616.455 197.605 617.205 197.061C617.961 196.51 619.021 196.234 620.387 196.234H621.969V195.487C621.969 194.919 621.799 194.468 621.459 194.134C621.119 193.794 620.618 193.624 619.956 193.624C619.376 193.624 618.89 193.771 618.497 194.063C618.104 194.356 617.908 194.711 617.908 195.127H616.273C616.273 194.652 616.44 194.195 616.774 193.756C617.114 193.311 617.571 192.959 618.146 192.701C618.726 192.443 619.361 192.314 620.053 192.314C621.148 192.314 622.007 192.59 622.628 193.141C623.249 193.686 623.571 194.438 623.595 195.399V199.776C623.595 200.649 623.706 201.344 623.929 201.859V202H622.224ZM619.525 200.761C620.035 200.761 620.519 200.629 620.976 200.365C621.433 200.102 621.764 199.759 621.969 199.337V197.386H620.694C618.702 197.386 617.706 197.969 617.706 199.135C617.706 199.645 617.876 200.043 618.216 200.33C618.556 200.617 618.992 200.761 619.525 200.761ZM628.35 190.188V192.49H630.125V193.747H628.35V199.645C628.35 200.025 628.429 200.312 628.587 200.506C628.745 200.693 629.015 200.787 629.396 200.787C629.583 200.787 629.841 200.752 630.169 200.682V202C629.741 202.117 629.325 202.176 628.921 202.176C628.194 202.176 627.646 201.956 627.277 201.517C626.908 201.077 626.724 200.453 626.724 199.645V193.747H624.992V192.49H626.724V190.188H628.35ZM632.832 202V193.747H631.329V192.49H632.832V191.515C632.832 190.495 633.104 189.707 633.649 189.15C634.194 188.594 634.965 188.315 635.961 188.315C636.336 188.315 636.708 188.365 637.077 188.465L636.989 189.783C636.714 189.73 636.421 189.704 636.11 189.704C635.583 189.704 635.176 189.859 634.889 190.17C634.602 190.475 634.458 190.914 634.458 191.488V192.49H636.488V193.747H634.458V202H632.832ZM637.859 197.157C637.859 196.226 638.041 195.388 638.404 194.644C638.773 193.899 639.283 193.325 639.934 192.921C640.59 192.517 641.337 192.314 642.175 192.314C643.47 192.314 644.516 192.763 645.312 193.659C646.115 194.556 646.517 195.748 646.517 197.236V197.351C646.517 198.276 646.338 199.108 645.98 199.847C645.629 200.579 645.122 201.15 644.46 201.561C643.804 201.971 643.048 202.176 642.192 202.176C640.903 202.176 639.857 201.728 639.055 200.831C638.258 199.935 637.859 198.748 637.859 197.271V197.157ZM639.494 197.351C639.494 198.405 639.737 199.252 640.224 199.891C640.716 200.529 641.372 200.849 642.192 200.849C643.019 200.849 643.675 200.526 644.161 199.882C644.647 199.231 644.891 198.323 644.891 197.157C644.891 196.114 644.642 195.271 644.144 194.626C643.651 193.976 642.995 193.65 642.175 193.65C641.372 193.65 640.725 193.97 640.232 194.608C639.74 195.247 639.494 196.161 639.494 197.351ZM653.152 193.949C652.906 193.908 652.64 193.888 652.353 193.888C651.286 193.888 650.562 194.342 650.182 195.25V202H648.556V192.49H650.138L650.164 193.589C650.697 192.739 651.453 192.314 652.432 192.314C652.748 192.314 652.988 192.355 653.152 192.438V193.949ZM656.185 192.49L656.229 193.545C656.926 192.725 657.866 192.314 659.05 192.314C660.38 192.314 661.285 192.824 661.766 193.844C662.082 193.387 662.492 193.018 662.996 192.736C663.506 192.455 664.106 192.314 664.798 192.314C666.884 192.314 667.944 193.419 667.979 195.628V202H666.354V195.725C666.354 195.045 666.198 194.538 665.888 194.204C665.577 193.864 665.056 193.694 664.323 193.694C663.72 193.694 663.219 193.876 662.82 194.239C662.422 194.597 662.19 195.08 662.126 195.689V202H660.491V195.769C660.491 194.386 659.814 193.694 658.461 193.694C657.395 193.694 656.665 194.148 656.272 195.057V202H654.646V192.49H656.185Z" fill="white"/>
</g>
<defs>
<filter id="filter0_d" x="417" y="-3" width="136" height="136" filterUnits="userSpaceOnUse" color-interpolation-filters="sRGB">
<feFlood flood-opacity="0" result="BackgroundImageFix"/>
<feColorMatrix in="SourceAlpha" type="matrix" values="0 0 0 0 0 0 0 0 0 0 0 0 0 0 0 0 0 0 127 0"/>
<feOffset dy="4"/>
<feGaussianBlur stdDeviation="2"/>
<feColorMatrix type="matrix" values="0 0 0 0 0 0 0 0 0 0 0 0 0 0 0 0 0 0 0.25 0"/>
<feBlend mode="normal" in2="BackgroundImageFix" result="effect1_dropShadow"/>
<feBlend mode="normal" in="SourceGraphic" in2="effect1_dropShadow" result="shape"/>
</filter>
<filter id="filter1_d" x="441" y="51" width="88" height="68" filterUnits="userSpaceOnUse" color-interpolation-filters="sRGB">
<feFlood flood-opacity="0" result="BackgroundImageFix"/>
<feColorMatrix in="SourceAlpha" type="matrix" values="0 0 0 0 0 0 0 0 0 0 0 0 0 0 0 0 0 0 127 0"/>
<feOffset dy="4"/>
<feGaussianBlur stdDeviation="2"/>
<feColorMatrix type="matrix" values="0 0 0 0 0 0 0 0 0 0 0 0 0 0 0 0 0 0 0.25 0"/>
<feBlend mode="normal" in2="BackgroundImageFix" result="effect1_dropShadow"/>
<feBlend mode="normal" in="SourceGraphic" in2="effect1_dropShadow" result="shape"/>
</filter>
<filter id="filter2_d" x="433" y="51" width="36" height="36" filterUnits="userSpaceOnUse" color-interpolation-filters="sRGB">
<feFlood flood-opacity="0" result="BackgroundImageFix"/>
<feColorMatrix in="SourceAlpha" type="matrix" values="0 0 0 0 0 0 0 0 0 0 0 0 0 0 0 0 0 0 127 0"/>
<feOffset dy="4"/>
<feGaussianBlur stdDeviation="2"/>
<feColorMatrix type="matrix" values="0 0 0 0 0 0 0 0 0 0 0 0 0 0 0 0 0 0 0.25 0"/>
<feBlend mode="normal" in2="BackgroundImageFix" result="effect1_dropShadow"/>
<feBlend mode="normal" in="SourceGraphic" in2="effect1_dropShadow" result="shape"/>
</filter>
<filter id="filter3_d" x="501" y="51" width="36" height="36" filterUnits="userSpaceOnUse" color-interpolation-filters="sRGB">
<feFlood flood-opacity="0" result="BackgroundImageFix"/>
<feColorMatrix in="SourceAlpha" type="matrix" values="0 0 0 0 0 0 0 0 0 0 0 0 0 0 0 0 0 0 127 0"/>
<feOffset dy="4"/>
<feGaussianBlur stdDeviation="2"/>
<feColorMatrix type="matrix" values="0 0 0 0 0 0 0 0 0 0 0 0 0 0 0 0 0 0 0.25 0"/>
<feBlend mode="normal" in2="BackgroundImageFix" result="effect1_dropShadow"/>
<feBlend mode="normal" in="SourceGraphic" in2="effect1_dropShadow" result="shape"/>
</filter>
<filter id="filter4_d" x="437" y="55" width="26" height="26" filterUnits="userSpaceOnUse" color-interpolation-filters="sRGB">
<feFlood flood-opacity="0" result="BackgroundImageFix"/>
<feColorMatrix in="SourceAlpha" type="matrix" values="0 0 0 0 0 0 0 0 0 0 0 0 0 0 0 0 0 0 127 0"/>
<feOffset dy="4"/>
<feGaussianBlur stdDeviation="2"/>
<feColorMatrix type="matrix" values="0 0 0 0 0 0 0 0 0 0 0 0 0 0 0 0 0 0 0.25 0"/>
<feBlend mode="normal" in2="BackgroundImageFix" result="effect1_dropShadow"/>
<feBlend mode="normal" in="SourceGraphic" in2="effect1_dropShadow" result="shape"/>
</filter>
<filter id="filter5_d" x="441" y="59" width="18" height="18" filterUnits="userSpaceOnUse" color-interpolation-filters="sRGB">
<feFlood flood-opacity="0" result="BackgroundImageFix"/>
<feColorMatrix in="SourceAlpha" type="matrix" values="0 0 0 0 0 0 0 0 0 0 0 0 0 0 0 0 0 0 127 0"/>
<feOffset dy="4"/>
<feGaussianBlur stdDeviation="2"/>
<feColorMatrix type="matrix" values="0 0 0 0 0 0 0 0 0 0 0 0 0 0 0 0 0 0 0.25 0"/>
<feBlend mode="normal" in2="BackgroundImageFix" result="effect1_dropShadow"/>
<feBlend mode="normal" in="SourceGraphic" in2="effect1_dropShadow" result="shape"/>
</filter>
<filter id="filter6_d" x="507" y="55" width="26" height="26" filterUnits="userSpaceOnUse" color-interpolation-filters="sRGB">
<feFlood flood-opacity="0" result="BackgroundImageFix"/>
<feColorMatrix in="SourceAlpha" type="matrix" values="0 0 0 0 0 0 0 0 0 0 0 0 0 0 0 0 0 0 127 0"/>
<feOffset dy="4"/>
<feGaussianBlur stdDeviation="2"/>
<feColorMatrix type="matrix" values="0 0 0 0 0 0 0 0 0 0 0 0 0 0 0 0 0 0 0.25 0"/>
<feBlend mode="normal" in2="BackgroundImageFix" result="effect1_dropShadow"/>
<feBlend mode="normal" in="SourceGraphic" in2="effect1_dropShadow" result="shape"/>
</filter>
<filter id="filter7_d" x="511" y="59" width="18" height="18" filterUnits="userSpaceOnUse" color-interpolation-filters="sRGB">
<feFlood flood-opacity="0" result="BackgroundImageFix"/>
<feColorMatrix in="SourceAlpha" type="matrix" values="0 0 0 0 0 0 0 0 0 0 0 0 0 0 0 0 0 0 127 0"/>
<feOffset dy="4"/>
<feGaussianBlur stdDeviation="2"/>
<feColorMatrix type="matrix" values="0 0 0 0 0 0 0 0 0 0 0 0 0 0 0 0 0 0 0.25 0"/>
<feBlend mode="normal" in2="BackgroundImageFix" result="effect1_dropShadow"/>
<feBlend mode="normal" in="SourceGraphic" in2="effect1_dropShadow" result="shape"/>
</filter>
<filter id="filter8_d" x="420.139" y="24.7361" width="129.723" height="78.9198" filterUnits="userSpaceOnUse" color-interpolation-filters="sRGB">
<feFlood flood-opacity="0" result="BackgroundImageFix"/>
<feColorMatrix in="SourceAlpha" type="matrix" values="0 0 0 0 0 0 0 0 0 0 0 0 0 0 0 0 0 0 127 0"/>
<feOffset dy="4"/>
<feGaussianBlur stdDeviation="2"/>
<feColorMatrix type="matrix" values="0 0 0 0 0 0 0 0 0 0 0 0 0 0 0 0 0 0 0.25 0"/>
<feBlend mode="normal" in2="BackgroundImageFix" result="effect1_dropShadow"/>
<feBlend mode="normal" in="SourceGraphic" in2="effect1_dropShadow" result="shape"/>
</filter>
<clipPath id="clip0">
<rect width="970" height="250" fill="white"/>
</clipPath>
<clipPath id="clip1">
<rect width="128" height="128" fill="white" transform="translate(421 -3)"/>
</clipPath>
</defs>
</svg>
